{
	"asset":{
		"generator":"Khronos glTF Blender I/O v4.3.47",
		"version":"2.0"
	},
	"scene":0,
	"scenes":[
		{
			"name":"Scene",
			"nodes":[
				0
			]
		}
	],
	"nodes":[
		{
			"mesh":0,
			"name":"Plane"
		}
	],
	"meshes":[
		{
			"name":"Plane.002",
			"primitives":[
				{
					"attributes":{
						"POSITION":0,
						"NORMAL":1,
						"TEXCOORD_0":2
					},
					"indices":3
				}
			]
		}
	],
	"accessors":[
		{
			"bufferView":0,
			"componentType":5126,
			"count":161604,
			"max":[
				25,
				3.091064214706421,
				25
			],
			"min":[
				-25,
				0,
				-25
			],
			"type":"VEC3"
		},
		{
			"bufferView":1,
			"componentType":5126,
			"count":161604,
			"type":"VEC3"
		},
		{
			"bufferView":2,
			"componentType":5126,
			"count":161604,
			"type":"VEC2"
		},
		{
			"bufferView":3,
			"componentType":5125,
			"count":964806,
			"type":"SCALAR"
		}
	],
	"bufferViews":[
		{
			"buffer":0,
			"byteLength":1939248,
			"byteOffset":0,
			"target":34962
		},
		{
			"buffer":0,
			"byteLength":1939248,
			"byteOffset":1939248,
			"target":34962
		},
		{
			"buffer":0,
			"byteLength":1292832,
			"byteOffset":3878496,
			"target":34962
		},
		{
			"buffer":0,
			"byteLength":3859224,
			"byteOffset":5171328,
			"target":34963
		}
	],
	"buffers":[
		{
			"byteLength":9030552,
			"uri":"terrain.bin"
		}
	]
}
